PathFileType	4	(X/Y/Z)	../Python\walking\Walking11\task.trc
DataRate	CameraRate	NumFrames	NumMarkers	Units	OrigDataRate	OrigDataStartFrame	OrigNumFrames
200.000000	200.000000	4	30	mm	200.000000	192	512
Frame#	Time	CLAV			STRN			RASI			LASI			RTH1			RTH2			RTH3			RTB1			RTB2			RTB3			RD5M			RTOE			LTH1			LTH2			LTH3			LTB1			LTB2			LTB3			LTOE			LD5M			PE03			PE02			RPSI			LPSI			T10			LHEE			C7			RHEE			RBAK			PE01			
		X1	Y1	Z1	X2	Y2	Z2	X3	Y3	Z3	X4	Y4	Z4	X5	Y5	Z5	X6	Y6	Z6	X7	Y7	Z7	X8	Y8	Z8	X9	Y9	Z9	X10	Y10	Z10	X11	Y11	Z11	X12	Y12	Z12	X13	Y13	Z13	X14	Y14	Z14	X15	Y15	Z15	X16	Y16	Z16	X17	Y17	Z17	X18	Y18	Z18	X19	Y19	Z19	X20	Y20	Z20	X21	Y21	Z21	X22	Y22	Z22	X23	Y23	Z23	X24	Y24	Z24	X25	Y25	Z25	X26	Y26	Z26	X27	Y27	Z27	X28	Y28	Z28	X29	Y29	Z29	X30	Y30	Z30	

193	0.96	832.232788085938	1424.0615234375	212.321258544922	892.5915527343755	1233.576782226563	223.8973846435548	867.5524902343755	1046.383911132813	367.9995117187501	878.5675659179692	990.7999877929692	100.3483200073243	866.5075683593755	785.491088867188	417.2883605957034	813.949096679688	752.5198364257815	417.1688232421877	839.4589233398442	712.1403808593752	401.0269470214846	895.106079101563	371.3213195800782	349.1624755859376	860.3579711914067	320.665008544922	350.3882141113282	899.4077148437505	293.4342041015626	335.9862670898439	1006.511169433594	15.53455543518067	319.1552734375001	1061.661865234375	35.37012863159181	275.2776794433595	782.1000366210942	680.2642822265627	84.85337066650393	757.7796630859377	643.507751464844	109.1521530151368	802.0810546875005	604.0280761718752	92.61199951171878	665.5998535156252	396.0153808593752	95.30091857910159	617.285095214844	393.7749023437502	107.3982467651368	620.1819458007815	331.446258544922	103.3896713256837	452.940856933594	66.643669128418	173.4670410156251	423.4743652343752	85.15217590332034	129.9536895751954	698.8110351562502	1045.491577148438	207.4777221679689	700.7985839843752	1054.50146484375	257.8318786621095	704.7893676757815	1070.284912109375	278.8352966308595	705.5371704101565	1054.1513671875	180.1292114257813	666.412048339844	1249.501220703125	193.7653808593751	381.7009887695314	250.8027648925782	159.6680297851563	716.109802246094	1515.31201171875	191.0330657958985	848.5236206054692	25.61832427978517	238.6938781738282	681.0950317382815	1424.026977539063	358.620574951172	712.9659423828127	1108.9287109375	221.1013946533204	
194	0.965	838.728881835938	1424.855224609375	212.3308410644532	898.8893432617192	1234.22314453125	223.807098388672	873.723266601563	1046.695678710938	368.3200988769532	884.276977539063	991.5778808593755	100.3602676391602	870.6364746093755	785.5676269531255	417.6692504882815	817.739379882813	753.018005371094	417.3931884765627	842.9067993164067	712.4107666015627	401.3544006347659	896.5832519531255	371.3343200683595	349.3631286621095	861.5687866210942	320.8723144531251	350.5332641601564	900.4980468750005	293.4363098144532	336.1243896484376	1006.506713867188	15.47409439086915	319.1887512207032	1061.777465820313	35.2506675720215	275.2318725585939	790.9165039062505	680.6385498046877	85.41609191894534	767.6793212890627	643.548767089844	110.1425704956055	812.167114257813	604.7522583007815	92.5263366699219	679.3674926757815	397.1958618164065	95.40327453613284	631.054138183594	395.1973266601565	107.6402130126954	633.6365966796877	332.8424377441407	103.5910186767579	467.8398742675784	68.43194580078128	171.1891479492188	437.6580810546877	87.64929962158206	128.4067840576172	704.7600097656252	1046.341674804688	208.1807556152345	706.823181152344	1055.386474609375	258.510955810547	710.882019042969	1071.184326171875	279.512908935547	711.490417480469	1054.951782226563	180.849838256836	672.6632080078127	1250.469116210938	194.5111083984376	394.4500122070315	252.2697906494142	161.4642028808594	722.6433715820315	1516.257202148438	191.3321990966797	848.4579467773442	25.63470458984376	238.7128448486329	688.0281982421877	1425.060791015625	359.1633911132814	719.073669433594	1109.767456054688	221.7248840332032	
195	0.97	845.201782226563	1425.626831054688	212.3388977050782	905.1448364257817	1234.842407226563	223.7301635742189	879.8134765625005	1046.964477539063	368.6760253906251	889.9736328125005	992.3796386718755	100.3919906616212	874.7021484375005	785.621948242188	418.0261230468752	821.4833984375005	753.4752197265627	417.5780944824221	846.3469238281255	712.6665649414065	401.645690917969	898.1093750000005	371.3669433593751	349.4989013671876	862.8438110351567	321.0999755859376	350.6468811035157	901.6430053710942	293.4595031738282	336.2083740234376	1006.50390625	15.42107677459718	319.2205505371095	1061.887939453125	35.1362991333008	275.1755371093751	799.6498413085942	681.0893554687502	85.93046569824222	777.506469726563	643.687438964844	111.0741958618165	822.1755981445317	605.5777587890627	92.41653442382815	693.0974731445315	398.477722167969	95.60276031494143	644.8010253906252	396.6428222656252	108.0080184936524	647.1352539062502	334.2789001464845	103.8174057006837	483.1846618652346	70.05584716796878	168.8882141113282	452.279724121094	89.9318542480469	126.8488922119141	710.6694946289065	1047.190185546875	208.8665161132814	712.7978515625002	1056.25341796875	259.1777648925782	716.9226074218752	1072.05859375	280.1815185546876	717.4094238281252	1055.760986328125	181.5551452636719	678.8711547851565	1251.430053710938	195.2853393554689	407.3822021484377	253.3827667236329	163.3715515136719	729.1597900390627	1517.188720703125	191.6315917968751	848.395385742188	25.6511859893799	238.7290954589845	694.9466552734377	1426.096435546875	359.720672607422	725.1338500976565	1110.598999023438	222.3558959960939	
196	0.975	851.6516723632817	1426.376831054688	212.3476409912111	911.3595581054692	1235.437377929688	223.6708831787111	885.8230590820317	1047.199340820313	369.069305419922	895.663452148438	993.2059936523442	100.4521789550782	878.7222290039067	785.660034179688	418.3547363281252	825.2005004882817	753.8975219726565	417.7278137207034	849.7976684570317	712.9131469726565	401.8993225097659	899.684448242188	371.4183349609376	349.5727844238282	864.179077148438	321.347869873047	350.7257080078126	902.8397827148442	293.5026245117189	336.2409667968751	1006.502197265625	15.37571048736573	319.2504882812501	1061.993896484375	35.02724075317384	275.1106567382814	808.3171386718755	681.6028442382815	86.40148925781253	787.2698364257817	643.9053955078127	111.9413146972657	832.1287231445317	606.490661621094	92.29860687255862	706.7825927734377	399.8432617187502	95.89445495605472	658.5183715820315	398.091491699219	108.4956130981446	660.671813964844	335.7360839843751	104.0627059936524	498.9345397949221	71.51124572753909	166.6057891845704	467.3172302246096	91.98780822753909	125.3051681518555	716.5432739257815	1048.038330078125	209.5277557373048	718.726257324219	1057.102661132813	259.8255615234376	722.913757324219	1072.908569335938	280.8340454101564	723.298034667969	1056.580444335938	182.2377166748047	685.0385742187502	1252.3837890625	196.0842742919923	420.4947509765627	254.1361389160157	165.3369750976563	735.6594238281252	1518.105834960938	191.931137084961	848.3369750976567	25.66808891296388	238.7420043945314	701.8486328125002	1427.133178710938	360.2906494140626	731.149108886719	1111.424194335938	222.988250732422	
